<svg width="85" height="64" viewBox="0 0 85 64" fill="none" xmlns="http://www.w3.org/2000/svg">
<g filter="url(#filter0_d_1_10)">
<path d="M18.3474 55.2856C15.8034 55.2856 13.5114 54.7336 11.4714 53.6296C9.43141 52.5016 7.82341 50.9536 6.64741 48.9856C5.49541 47.0176 4.91941 44.8216 4.91941 42.3976C4.91941 39.9736 5.49541 37.7776 6.64741 35.8096C7.82341 33.8416 9.43141 32.3056 11.4714 31.2016C13.5114 30.0736 15.8034 29.5096 18.3474 29.5096C20.8674 29.5096 23.1474 30.0736 25.1874 31.2016C27.2274 32.3056 28.8234 33.8416 29.9754 35.8096C31.1274 37.7536 31.7034 39.9496 31.7034 42.3976C31.7034 44.8456 31.1274 47.0536 29.9754 49.0216C28.8234 50.9656 27.2274 52.5016 25.1874 53.6296C23.1474 54.7336 20.8674 55.2856 18.3474 55.2856ZM18.3474 52.0816C20.1954 52.0816 21.8514 51.6616 23.3154 50.8216C24.8034 49.9816 25.9674 48.8296 26.8074 47.3656C27.6714 45.8776 28.1034 44.2216 28.1034 42.3976C28.1034 40.5736 27.6714 38.9296 26.8074 37.4656C25.9674 35.9776 24.8034 34.8136 23.3154 33.9736C21.8514 33.1336 20.1954 32.7136 18.3474 32.7136C16.4994 32.7136 14.8194 33.1336 13.3074 33.9736C11.8194 34.8136 10.6434 35.9776 9.77941 37.4656C8.93941 38.9296 8.51941 40.5736 8.51941 42.3976C8.51941 44.2216 8.93941 45.8776 9.77941 47.3656C10.6434 48.8296 11.8194 49.9816 13.3074 50.8216C14.8194 51.6616 16.4994 52.0816 18.3474 52.0816ZM60.5698 54.9976L60.5338 36.6376L51.4258 51.9376H49.7698L40.6618 36.7456V54.9976H37.2058V29.7976H40.1578L50.6698 47.5096L61.0378 29.7976H63.9898L64.0258 54.9976H60.5698Z" fill="white"/>
</g>
<g filter="url(#filter1_d_1_10)">
<path d="M79.6783 19.6298L78.2649 19.1976C78.0688 19.1377 77.8618 19.1941 77.7294 19.3433C77.386 19.7309 77.0092 20.0994 76.6093 20.4387C73.6452 22.9537 69.9246 23.8125 65.85 22.9233C61.7957 22.0386 59.9322 19.692 57.353 16.4441C57.1686 16.2118 56.981 15.9756 56.7891 15.7357C56.7673 15.7083 56.7416 15.6724 56.7144 15.6344C56.6428 15.5343 56.5536 15.4098 56.4281 15.287C56.2576 15.1201 56.0719 14.9646 55.8761 14.825C55.4716 14.5364 55.2018 14.082 55.1361 13.5784L54.7024 10.2566C54.6836 10.1126 54.6098 9.97958 54.4971 9.88658C54.3846 9.79352 54.2423 9.74818 54.1017 9.76061L51.9617 9.94883C51.6692 9.97446 51.4637 10.2384 51.5027 10.5381L51.9187 13.7244C51.9642 14.0732 51.8514 14.428 51.6092 14.6977C51.2393 15.1095 51.0509 15.6178 51.0642 16.1673C51.2326 23.1161 55.8916 28.2594 63.5271 29.9255C66.8224 30.6445 70.3266 30.2145 73.3941 28.7146C74.0115 28.4127 74.5957 28.0749 75.1441 27.7029C75.9085 27.1844 76.6034 26.5995 77.2215 25.9536C78.3264 24.7991 79.1295 23.5062 79.6087 22.111C79.8142 21.5124 79.971 20.8917 80.0744 20.266C80.1203 19.989 79.948 19.7123 79.6783 19.6298ZM52.6332 10.9875L53.7136 10.8925L54.0011 13.0943L53.5648 13.105L52.9117 13.121L52.6332 10.9875ZM74.5314 26.7872C71.5608 28.8018 67.5296 29.6956 63.7032 28.8607C56.613 27.3135 52.2877 22.5775 52.1329 16.1918C52.1246 15.8488 52.2808 15.6009 52.4132 15.4535C52.728 15.1029 52.9232 14.6684 52.9802 14.2102L54.1886 14.1806C54.3811 14.7938 54.7672 15.3339 55.2911 15.7076C55.4387 15.8129 55.5786 15.9299 55.7067 16.0553C55.7595 16.107 55.8063 16.1726 55.8607 16.2485C55.8956 16.2973 55.9317 16.3477 55.9729 16.3992C56.1639 16.6383 56.3508 16.8735 56.5345 17.1049C59.1583 20.409 61.2307 23.0186 65.6737 23.9881C67.9004 24.474 70.0495 24.4727 72.0614 23.9844C73.8865 23.5414 75.5656 22.7073 77.0574 21.5031L77.0933 21.5206L77.2848 21.6142C76.5154 22.8093 75.5337 23.8047 74.3974 24.5753C71.9006 26.2686 68.662 26.879 65.3163 26.149C60.1068 25.0123 56.3962 22.2086 54.8678 18.2544C54.758 17.9702 54.4468 17.8198 54.1728 17.9184C53.8987 18.0169 53.7657 18.3273 53.8755 18.6116C55.548 22.9387 59.5485 25.9938 65.1401 27.2138C67.8685 27.8091 70.5783 27.5923 72.9764 26.5867C73.7048 26.2813 74.3903 25.9101 75.0272 25.478C76.3342 24.5915 77.4353 23.4491 78.2776 22.0992L78.424 22.1707C77.6694 24.0172 76.2854 25.5976 74.5314 26.7872ZM78.7706 21.1544L78.5521 21.0477L77.9213 20.7396C78.0568 20.6079 78.1891 20.4733 78.3175 20.3361L78.9274 20.5226C78.8817 20.7348 78.8294 20.9456 78.7706 21.1544Z" fill="white"/>
</g>
<defs>
<filter id="filter0_d_1_10" x="0.919407" y="29.5098" width="67.1064" height="33.7759" filterUnits="userSpaceOnUse" color-interpolation-filters="sRGB">
<feFlood flood-opacity="0" result="BackgroundImageFix"/>
<feColorMatrix in="SourceAlpha" type="matrix" values="0 0 0 0 0 0 0 0 0 0 0 0 0 0 0 0 0 0 127 0" result="hardAlpha"/>
<feOffset dy="4"/>
<feGaussianBlur stdDeviation="2"/>
<feComposite in2="hardAlpha" operator="out"/>
<feColorMatrix type="matrix" values="0 0 0 0 0 0 0 0 0 0 0 0 0 0 0 0 0 0 0.25 0"/>
<feBlend mode="normal" in2="BackgroundImageFix" result="effect1_dropShadow_1_10"/>
<feBlend mode="normal" in="SourceGraphic" in2="effect1_dropShadow_1_10" result="shape"/>
</filter>
<filter id="filter1_d_1_10" x="47.0636" y="9.75879" width="37.0182" height="28.5063" filterUnits="userSpaceOnUse" color-interpolation-filters="sRGB">
<feFlood flood-opacity="0" result="BackgroundImageFix"/>
<feColorMatrix in="SourceAlpha" type="matrix" values="0 0 0 0 0 0 0 0 0 0 0 0 0 0 0 0 0 0 127 0" result="hardAlpha"/>
<feOffset dy="4"/>
<feGaussianBlur stdDeviation="2"/>
<feComposite in2="hardAlpha" operator="out"/>
<feColorMatrix type="matrix" values="0 0 0 0 0 0 0 0 0 0 0 0 0 0 0 0 0 0 0.25 0"/>
<feBlend mode="normal" in2="BackgroundImageFix" result="effect1_dropShadow_1_10"/>
<feBlend mode="normal" in="SourceGraphic" in2="effect1_dropShadow_1_10" result="shape"/>
</filter>
</defs>
</svg>
